<svg width="45" height="45" viewBox="0 0 45 45" fill="none" xmlns="http://www.w3.org/2000/svg">
<path d="M22.5 3.75C32.8387 3.75 41.25 12.1613 41.25 22.5C41.25 32.8387 32.8387 41.25 22.5 41.25C12.1613 41.25 3.75 32.8387 3.75 22.5C3.75 12.1613 12.1613 3.75 22.5 3.75ZM22.5 0C10.0744 0 0 10.0744 0 22.5C0 34.9256 10.0744 45 22.5 45C34.9256 45 45 34.9256 45 22.5C45 10.0744 34.9256 0 22.5 0ZM18.75 18.75H15V22.5H18.75V33.75H24.375V22.5H27.7875L28.125 18.75H24.375V17.1881C24.375 16.2919 24.555 15.9375 25.4212 15.9375H28.125V11.25H23.6175C20.2463 11.25 18.75 12.735 18.75 15.5775V18.75Z" fill="#EAEAEA"/>
</svg>
