<svg width="45" height="45" viewBox="0 0 45 45" fill="none" xmlns="http://www.w3.org/2000/svg">
<path d="M22.5 3.75C32.8387 3.75 41.25 12.1613 41.25 22.5C41.25 32.8387 32.8387 41.25 22.5 41.25C12.1613 41.25 3.75 32.8387 3.75 22.5C3.75 12.1613 12.1613 3.75 22.5 3.75ZM22.5 0C10.0744 0 0 10.0744 0 22.5C0 34.9256 10.0744 45 22.5 45C34.9256 45 45 34.9256 45 22.5C45 10.0744 34.9256 0 22.5 0ZM31.1531 11.25H13.8469C12.4106 11.25 11.25 12.4125 11.25 13.845V31.1513C11.25 32.5875 12.4106 33.75 13.8469 33.75H31.1531C32.5894 33.75 33.75 32.5875 33.75 31.1531V13.8469C33.75 12.4125 32.5894 11.25 31.1531 11.25ZM22.5 18.1744C24.8888 18.1744 26.8294 20.1094 26.8294 22.5C26.8294 24.8906 24.8888 26.8256 22.5 26.8256C20.1112 26.8256 18.1744 24.8888 18.1744 22.5C18.1744 20.1112 20.1112 18.1744 22.5 18.1744ZM30.9375 30.0731C30.9375 30.5512 30.5494 30.9375 30.0731 30.9375H14.9269C14.4506 30.9375 14.0625 30.5494 14.0625 30.0731V20.625H15.8419C15.7575 20.9212 15.6956 21.225 15.6506 21.5363C15.6075 21.8512 15.5794 22.1719 15.5794 22.5C15.5794 26.325 18.6769 29.4244 22.5 29.4244C26.3231 29.4244 29.4206 26.325 29.4206 22.5C29.4206 22.1737 29.3925 21.8512 29.3475 21.5363C29.3044 21.225 29.2388 20.9212 29.1562 20.625H30.9375V30.0731ZM30.9375 16.965C30.9375 17.4431 30.5494 17.8313 30.0731 17.8313H28.0331C27.5531 17.8313 27.1687 17.4412 27.1687 16.965V14.9269C27.1687 14.4487 27.5531 14.0625 28.0331 14.0625H30.0731C30.5494 14.0625 30.9375 14.4506 30.9375 14.9269V16.965Z" fill="#EAEAEA"/>
</svg>
