<svg width="45" height="34" viewBox="0 0 45 34" fill="none" xmlns="http://www.w3.org/2000/svg">
<path d="M43.1822 14.3338H1.81775C0.813867 14.3338 0 15.5146 0 16.9715C0 18.4284 0.813867 19.6093 1.81775 19.6093H43.1822C44.1862 19.6093 45 18.4284 45 16.9715C45 15.5148 44.1862 14.3338 43.1822 14.3338Z" fill="#D8D8D8"/>
<path d="M43.1822 0H1.81775C0.813867 0 0 1.181 0 2.63774C0 4.09448 0.813867 5.27548 1.81775 5.27548H43.1822C44.1862 5.27548 45 4.09448 45 2.63774C45 1.181 44.1862 0 43.1822 0Z" fill="#D8D8D8"/>
<path d="M43.1822 28.6675H1.81775C0.813867 28.6675 0 29.8484 0 31.3053C0 32.7621 0.813867 33.943 1.81775 33.943H43.1822C44.1862 33.943 45 32.7621 45 31.3053C45 29.8484 44.1862 28.6675 43.1822 28.6675Z" fill="#D8D8D8"/>
</svg>
