<svg width="45" height="45" viewBox="0 0 45 45" fill="none" xmlns="http://www.w3.org/2000/svg">
<path d="M22.5 3.75C32.8387 3.75 41.25 12.1613 41.25 22.5C41.25 32.8387 32.8387 41.25 22.5 41.25C12.1613 41.25 3.75 32.8387 3.75 22.5C3.75 12.1613 12.1613 3.75 22.5 3.75ZM22.5 0C10.0744 0 0 10.0744 0 22.5C0 34.9256 10.0744 45 22.5 45C34.9256 45 45 34.9256 45 22.5C45 10.0744 34.9256 0 22.5 0ZM34.6875 16.4587C33.8606 16.8263 32.97 17.0738 32.0363 17.1863C32.9906 16.6144 33.72 15.7106 34.0669 14.6325C33.1744 15.1613 32.1862 15.5456 31.1344 15.7519C30.2944 14.8538 29.0925 14.2931 27.7669 14.2931C24.7856 14.2931 22.5956 17.0737 23.2687 19.9613C19.4344 19.7681 16.0312 17.9306 13.755 15.1388C12.5456 17.2125 13.1287 19.9275 15.1837 21.3019C14.4281 21.2775 13.7175 21.0694 13.095 20.7244C13.0444 22.8619 14.5781 24.8625 16.7981 25.3088C16.1494 25.485 15.4369 25.5263 14.7131 25.3875C15.3 27.2213 17.0081 28.5544 19.0256 28.5919C17.0813 30.1144 14.6381 30.795 12.1875 30.5063C14.2312 31.8169 16.6556 32.58 19.2619 32.58C27.8344 32.58 32.6756 25.3406 32.3831 18.8475C33.2869 18.1987 34.0687 17.385 34.6875 16.4587Z" fill="#EAEAEA"/>
</svg>
